<svg width="512" height="512" xmlns="http://www.w3.org/2000/svg">

 <g>
  <title>background</title>
  <rect fill="none" id="canvas_background" height="402" width="582" y="-1" x="-1"/>
 </g>
 <g>
  <title>Layer 1</title>
  <path id="svg_1" fill="#FFFFFF" d="m63.088,426.459l438.912,1.635l0,-338.063c0,-11.046 -8.954,-20 -20,-20l-398.912,0c-11.046,0 -20,8.954 -20,20c0,0 0,336.428 0,336.428z"/>
  <path id="svg_2" fill="#FF5D5D" d="m63.088,157.031l438.912,0l0,-67c0,-11.046 -8.954,-20 -20,-20l-398.912,0c-11.046,0 -20,8.954 -20,20c0,0 0,67 0,67z"/>
  <path id="svg_3" fill="#C9F3FF" d="m448.125,481.969l0,0c-29.754,0 -53.875,-24.121 -53.875,-53.875l-384.25,0c0,29.754 24.121,53.875 53.875,53.875l0,0l382.113,0"/>
  <circle id="svg_4" fill="#FFC66C" r="80" cy="292.56" cx="282.54"/>
  <path id="svg_5" d="m482,60.031l-24,0l0,-3.405c0,-20.178 -16.417,-36.595 -36.595,-36.595s-36.594,16.417 -36.594,36.595l0,3.405l-67.811,0l0,-3.405c0,-20.178 -16.417,-36.595 -36.595,-36.595s-36.594,16.417 -36.594,36.595l0,3.405l-67.811,0l0,-3.405c0,-20.178 -16.417,-36.595 -36.595,-36.595s-36.594,16.417 -36.594,36.595l0,3.405l-19.723,0c-16.542,0 -30,13.458 -30,30l0,253.878c0,5.523 4.477,10 10,10s10,-4.477 10,-10l0,-176.878l341.245,0c5.523,0 10,-4.477 10,-10s-4.477,-10 -10,-10l-341.245,0l0,-57c0,-5.514 4.486,-10 10,-10l50.912,0l22,0l0,9.348c0,9.15 -7.444,16.595 -16.595,16.595c-5.523,0 -10,4.477 -10,10c0,5.523 4.477,10 10,10c20.178,0 36.595,-16.417 36.595,-36.595l0,-9.348l121,0l0,9.348c0,9.15 -7.444,16.595 -16.595,16.595c-5.523,0 -10,4.477 -10,10c0,5.523 4.477,10 10,10c20.178,0 36.595,-16.417 36.595,-36.595l0,-9.348l121,0l0,9.348c0,9.15 -7.444,16.595 -16.595,16.595c-5.523,0 -10,4.477 -10,10c0,5.523 4.477,10 10,10c20.178,0 36.595,-16.417 36.595,-36.595l0,-9.348l24,0c5.514,0 10,4.486 10,10l0,338.063c0,24.193 -19.682,43.875 -43.875,43.875s-43.875,-19.682 -43.875,-43.875c0,-5.523 -4.477,-10 -10,-10l-384.25,0c-5.523,0 -10,4.477 -10,10c0,35.221 28.654,63.875 63.875,63.875l382.113,0c0.204,0 0.406,-0.006 0.606,-0.018c0.509,0.012 1.019,0.018 1.531,0.018c35.221,0 63.875,-28.654 63.875,-63.875l0,-338.063c0,-16.542 -13.458,-30 -30,-30zm-348,0l-11.189,0l0,-3.405c0,-9.15 7.444,-16.595 16.594,-16.595c9.15,0 16.595,7.444 16.595,16.595l0,3.405l-22,0zm129.811,0l0,-3.405c0,-9.15 7.444,-16.595 16.594,-16.595s16.595,7.444 16.595,16.595l0,3.405l-33.189,0zm141,0l0,-3.405c0,-9.15 7.444,-16.595 16.594,-16.595s16.595,7.444 16.595,16.595l0,3.405l-33.189,0zm-340.936,411.938c-20.754,0 -38.188,-14.484 -42.726,-33.875l363.882,0c2.053,13.005 8.045,24.718 16.712,33.875l-337.868,0z"/>
  <path id="svg_6" d="m70.16,392.35c1.86,-1.86 2.93,-4.44 2.93,-7.07s-1.07,-5.21 -2.93,-7.07c-1.86,-1.86 -4.44,-2.93 -7.07,-2.93s-5.21,1.07 -7.07,2.93s-2.93,4.44 -2.93,7.07s1.07,5.21 2.93,7.07c1.86,1.86 4.43,2.93 7.07,2.93c2.63,0 5.21,-1.07 7.07,-2.93z"/>
  <path id="svg_7" d="m468.31,164.1c1.86,-1.86 2.93,-4.44 2.93,-7.07s-1.07,-5.21 -2.93,-7.07s-4.44,-2.93 -7.07,-2.93s-5.21,1.07 -7.07,2.93c-1.86,1.86 -2.93,4.44 -2.93,7.07s1.07,5.21 2.93,7.07s4.44,2.93 7.07,2.93s5.21,-1.07 7.07,-2.93z"/>
  <path id="svg_8" d="m264.78,278.000004c0,-2.63 -1.07,-5.21 -2.93,-7.07c-1.86,-1.86 -4.44,-2.93 -7.08,-2.93c-2.63,0 -5.21,1.07 -7.07,2.93s-2.93,4.44 -2.93,7.07s1.07,5.21 2.93,7.07c1.87,1.86 4.44,2.93 7.07,2.93c2.64,0 5.21,-1.07 7.08,-2.93c1.86,-1.86 2.93,-4.44 2.93,-7.07z"/>
  <path id="svg_9" d="m309.31,287.73c2.64,0 5.21,-1.07 7.07,-2.93c1.87,-1.86 2.93,-4.44 2.93,-7.07s-1.06,-5.21 -2.93,-7.07c-1.86,-1.86 -4.44,-2.93 -7.07,-2.93s-5.21,1.07 -7.07,2.93c-1.86,1.86 -2.93,4.44 -2.93,7.07s1.07,5.21 2.93,7.07s4.44,2.93 7.07,2.93z"/>
  <path stroke="null" transform="rotate(-179.7171630859375 282.54418945312506,318.5921020507812) " id="svg_10" d="m306.307,322.214c3.905,-3.905 3.906,-10.237 0,-14.142c-3.904,-3.905 -10.237,-3.905 -14.142,0c-5.305,5.305 -13.938,5.304 -19.242,0c-3.905,-3.905 -10.237,-3.905 -14.142,0s-3.905,10.237 0,14.142c6.551,6.551 15.157,9.827 23.762,9.827c8.607,0 17.212,-3.276 23.764,-9.827z"/>
  <path id="svg_11" d="m372.544,292.563c0,-49.626 -40.374,-90 -90,-90s-90,40.374 -90,90s40.374,90 90,90s90,-40.375 90,-90zm-160,0c0,-38.598 31.402,-70 70,-70s70,31.402 70,70s-31.402,70 -70,70s-70,-31.402 -70,-70z"/>
  <g id="svg_12"/>
  <g id="svg_13"/>
  <g id="svg_14"/>
  <g id="svg_15"/>
  <g id="svg_16"/>
  <g id="svg_17"/>
  <g id="svg_18"/>
  <g id="svg_19"/>
  <g id="svg_20"/>
  <g id="svg_21"/>
  <g id="svg_22"/>
  <g id="svg_23"/>
  <g id="svg_24"/>
  <g id="svg_25"/>
  <g id="svg_26"/>
  <path id="svg_29" d="m252.942813,305.486986c-2.234056,-0.829458 -3.835361,-3.465047 -3.471452,-5.713682c0.229472,-1.417948 5.070754,-10.025804 5.49355,-9.767624c0.137994,0.084278 1.365976,2.091121 2.728855,4.459687c2.183182,3.794168 2.477946,4.501671 2.477946,5.947469c0,2.930596 -2.373704,5.331089 -5.223824,5.282787c-0.831708,-0.014107 -1.733989,-0.107984 -2.005074,-0.208637l0,0zm2.020738,-0.317917c0.073964,-0.379407 1.052479,-0.347346 0.427756,0.173511c-0.624737,0.520857 -4.246009,-1.789337 -4.548423,-2.942476c-0.32259,-1.230087 0.001541,-2.702196 -0.124796,-1.548895c-0.243413,2.222 4.052938,5.265723 4.462998,3.161805l0.049151,0z" stroke-width="null" fill="#C9F3FF"/>
 </g>
</svg>